<?xml version="1.0" standalone="no"?>
<!DOCTYPE svg PUBLIC "-//W3C//DTD SVG 20010904//EN"
 "http://www.w3.org/TR/2001/REC-SVG-20010904/DTD/svg10.dtd">
<svg version="1.0" xmlns="http://www.w3.org/2000/svg"
 width="500.000000pt" height="500.000000pt" viewBox="0 0 500.000000 500.000000"
 preserveAspectRatio="xMidYMid meet">

<g transform="translate(0.000000,500.000000) scale(0.100000,-0.100000)"
fill="#000000" stroke="none">
<path d="M2225 4984 c-493 -56 -958 -256 -1340 -577 -318 -267 -585 -648 -731
-1042 -49 -134 -110 -379 -131 -528 -23 -167 -23 -507 0 -674 21 -149 82 -394
131 -528 116 -312 313 -624 551 -874 239 -250 596 -483 930 -607 134 -49 379
-110 528 -131 167 -23 507 -23 674 0 149 21 394 82 528 131 312 116 624 313
874 551 250 239 483 596 607 930 49 134 110 379 131 528 23 167 23 507 0 674
-21 149 -82 394 -131 528 -124 334 -357 691 -607 930 -250 238 -562 435 -874
551 -131 48 -378 110 -518 129 -164 23 -464 27 -622 9z m1354 -1365 c43 -15
51 -35 51 -131 0 -187 -51 -391 -145 -584 -92 -188 -219 -343 -417 -509 l-48
-40 15 -80 c8 -44 14 -130 15 -191 0 -169 -30 -248 -127 -333 -93 -83 -329
-176 -425 -169 -38 3 -45 7 -60 38 -16 31 -18 67 -18 285 l0 251 -133 132
-134 132 -257 0 c-146 0 -265 4 -275 10 -38 20 -44 60 -21 145 62 230 151 370
274 430 94 46 277 52 444 14 25 -5 49 -6 53 -2 4 4 33 40 66 78 83 100 216
223 303 282 205 138 448 224 687 242 59 4 111 9 114 10 3 0 20 -4 38 -10z
m-1603 -1486 c67 -22 146 -104 169 -173 56 -169 -22 -323 -211 -419 -78 -39
-221 -86 -324 -105 -112 -22 -132 -20 -160 9 -21 22 -22 31 -17 87 8 88 49
237 93 342 55 130 143 230 230 261 54 19 161 18 220 -2z"/>
<path d="M3335 3449 c-176 -30 -342 -96 -500 -199 -99 -65 -272 -237 -344
-343 -61 -89 -201 -357 -201 -384 0 -23 219 -243 241 -243 28 0 291 137 372
193 228 159 393 363 486 602 61 155 103 396 69 394 -7 0 -62 -9 -123 -20z"/>
<path d="M2009 2880 c-57 -10 -96 -30 -131 -67 -28 -29 -92 -157 -104 -205
l-6 -28 183 0 184 0 69 140 c38 77 67 142 65 144 -6 6 -157 26 -187 25 -15 -1
-48 -5 -73 -9z"/>
<path d="M2720 2192 l-135 -67 -3 -183 c-1 -100 1 -182 6 -182 27 0 140 47
190 80 71 46 100 89 113 171 12 73 -6 249 -25 248 -6 0 -72 -31 -146 -67z"/>
<path d="M1815 1985 c-68 -24 -125 -105 -173 -250 -11 -33 -24 -77 -27 -99
l-8 -38 34 7 c70 14 201 64 255 96 71 42 106 92 106 152 1 57 -26 102 -77 127
-48 23 -57 24 -110 5z"/>
</g>
</svg>
